<?xml version="1.0" encoding="UTF-8"?>
<svg viewBox="0 0 36 19" version="1.1" xmlns="http://www.w3.org/2000/svg" xmlns:xlink="http://www.w3.org/1999/xlink">
    <!-- Generator: Sketch 64 (93537) - https://sketch.com -->
    <title>Group 12 Copy 3</title>
    <desc>Created with Sketch.</desc>
    <g id="Data-Sync-Revised-9.2.24" stroke="none" stroke-width="1" fill="none" fill-rule="evenodd">
        <g id="App_UI_DataSync_Revised3_1.0" transform="translate(-33.000000, -201.000000)">
            <g id="Group-12-Copy-3" transform="translate(32.000000, 201.000000)">
                <path d="M25.9219853,0 C26.47427,-1.01453063e-16 26.9219853,0.44771525 26.9219853,1 L26.9219853,18 C26.9219853,18.5522847 26.47427,19 25.9219853,19 L12.9219853,19 C12.3697005,19 11.9219853,18.5522847 11.9219853,18 L11.9219853,1 C11.9219853,0.44771525 12.3697005,1.01453063e-16 12.9219853,0 L25.9219853,0 Z M14.3192108,5.01144838 L17.9549376,11.7442758 L24.5247597,13.9885516 L21.1361986,8.15343451 L14.3192108,5.01144838 Z M19.6046188,9.06878783 C20.1066079,9.06878783 20.5135505,9.47070643 20.5135505,9.96649815 C20.5135505,10.4622899 20.1066079,10.8642085 19.6046188,10.8642085 C19.1026296,10.8642085 18.6956871,10.4622899 18.6956871,9.96649815 C18.6956871,9.47070643 19.1026296,9.06878783 19.6046188,9.06878783 Z" id="Combined-Shape-Copy" fill="#1B80C9"></path>
                <g id="Path-2" transform="translate(34.190088, 8.401372) rotate(45.000000) translate(-34.190088, -8.401372) translate(30.906137, 5.103738)" fill-rule="nonzero" stroke="#1B80C9" stroke-linecap="round" stroke-width="1.75">
                    <path d="M6.56790123,6.56790123 C6.56790123,2.94054954 3.62735169,2.27373675e-13 -2.84217094e-14,2.27373675e-13" id="Path"></path>
                    <path d="M3.28395062,6.59526749 C3.28395062,4.78159164 1.81367585,3.31131687 7.67386155e-13,3.31131687" id="Path"></path>
                </g>
                <g id="Path-2" transform="translate(4.653883, 8.401372) scale(-1, 1) rotate(45.000000) translate(-4.653883, -8.401372) translate(1.369932, 5.103738)" fill-rule="nonzero" stroke="#1B80C9" stroke-linecap="round" stroke-width="1.75">
                    <path d="M6.56790123,6.56790123 C6.56790123,2.94054954 3.62735169,-1.13686838e-13 0,-1.13686838e-13" id="Path"></path>
                    <path d="M3.28395062,6.59526749 C3.28395062,4.78159164 1.81367585,3.31131687 6.82121026e-13,3.31131687" id="Path"></path>
                </g>
            </g>
        </g>
    </g>
</svg>
