<?xml version="1.0" encoding="UTF-8"?>
<svg width="230px" height="149px" viewBox="0 0 230 149" version="1.1" xmlns="http://www.w3.org/2000/svg" xmlns:xlink="http://www.w3.org/1999/xlink">
    <!-- Generator: Sketch 64 (93537) - https://sketch.com -->
    <title>Group</title>
    <desc>Created with Sketch.</desc>
    <g id="Revised-2" stroke="none" stroke-width="1" fill="none" fill-rule="evenodd">
        <g id="App_Toast_Disconnect-Troubleshoot_2.1.2" transform="translate(-242.000000, -162.000000)">
            <g id="Group" transform="translate(242.000000, 162.000000)">
                <g id="StationDisconnected_Icon" transform="translate(0.000000, 22.000000)" fill="#CCCDCF" fill-rule="nonzero">
                    <path d="M38.7450979,80 C37.7291497,80.0006183 36.7355616,79.6951203 35.8885576,79.1216935 C29.134499,74.592753 25.0470957,66.9084999 25.0004043,58.6521386 C24.9537128,50.3957774 28.9539338,42.6637405 35.6563186,38.055296 C37.2039631,36.8788542 39.2597817,36.6694611 41.0041236,37.5106013 C42.7484654,38.3517415 43.8976566,40.1066245 43.993517,42.0755819 C44.0893774,44.0445393 43.1163177,45.9073692 41.4622948,46.921365 C37.6636132,49.5339648 35.3971732,53.91722 35.4251904,58.5970187 C35.4532077,63.2768175 37.7719598,67.6313935 41.6016382,70.1962799 C43.5321436,71.4937334 44.3998589,73.9330376 43.735467,76.1948574 C43.071075,78.4566771 41.0323119,80.0040242 38.721874,80 L38.7450979,80 Z" id="Path"></path>
                    <path d="M19.6407064,91 C18.5112997,90.947651 17.4213181,90.5577748 16.5044558,89.8781924 C5.7098053,81.8956369 -0.475875877,68.8888498 0.0286480591,55.2340979 C0.533171995,41.5793459 7.66083289,29.0918035 19.0134562,21.9730323 C20.7857936,20.7822645 23.0484728,20.6769656 24.918333,21.6982355 C26.7881932,22.7195054 27.9688187,24.7054493 27.999392,26.8809209 C28.0299653,29.0563924 26.9056398,31.0765294 25.0652582,32.1528392 C17.0301629,37.1886895 11.9857441,46.0261634 11.6306473,55.6893513 C11.2755505,65.3525391 15.6570257,74.555638 23.2996653,80.1996186 C25.3276563,81.7597563 26.1373298,84.4904769 25.3003859,86.9472882 C24.4634421,89.4040995 22.1730211,91.0200471 19.6407064,90.9403294 L19.6407064,91 Z" id="Path"></path>
                    <path d="M192.293165,32 C193.309022,31.9991502 194.302728,32.304272 195.150787,32.8774475 C201.880158,37.3991878 205.953072,45.0742724 205.999597,53.3211732 C206.046122,61.568074 202.060077,69.2909157 195.382173,73.8921073 C193.843684,75.1060524 191.773913,75.341691 190.012992,74.5033762 C188.252072,73.6650614 187.09263,71.8921034 187.005292,69.9041564 C186.917953,67.9162094 187.917231,66.0436286 189.597514,65.0465056 C193.388691,62.4420768 195.653171,58.0629248 195.62757,53.3853166 C195.601969,48.7077085 193.289697,44.3548684 189.470251,41.7941934 C187.548628,40.4992026 186.683719,38.0653965 187.342607,35.8071266 C188.001496,33.5488566 190.028059,32.0012201 192.327873,32 L192.293165,32 Z" id="Path"></path>
                    <path d="M210.242067,21.0028282 C211.381671,21.0482442 212.48216,21.4396601 213.40298,22.1270841 C224.254954,30.128635 230.472941,43.1428959 229.971865,56.8057965 C229.470789,70.468697 222.316998,82.9711266 210.909371,90.1206471 C209.125518,91.2358889 206.894786,91.2941674 205.05747,90.2735296 C203.220153,89.2528918 202.055384,87.3083969 202.001921,85.1725173 C201.948457,83.0366377 203.01442,81.0338644 204.798273,79.9186226 C212.888652,74.8636825 217.963845,66.0057379 218.316935,56.3239453 C218.670024,46.6421527 214.254094,37.422945 206.554336,31.7669806 C204.510397,30.203438 203.694357,27.4667575 204.537882,25.0045842 C205.381407,22.5424109 207.689839,20.9229365 210.242067,21.0028282 L210.242067,21.0028282 Z" id="Path"></path>
                    <path d="M103.877339,43.6303108 L126.221047,52.8285247 L140.209635,77.1704302 L166,101 L166,15.2135488 C166.006288,11.7133683 164.624563,8.35420668 162.159101,5.87585138 C159.693639,3.39749609 156.346643,2.00320854 152.855223,2 L77.433323,2 C72.6956332,1.98665478 68.3214583,4.54390214 66,8.68424671 L103.877339,43.6303108 Z" id="Path"></path>
                    <path d="M125.824197,85.1342812 L105.503019,76.732181 L92.7604443,54.5626396 L64,28 L64,110.712675 C64,118.05106 69.9244696,124 77.2326733,124 L153.090437,124 C156.88765,124.002959 160.500744,122.357442 163,119.486868 L125.824197,85.1342812 Z" id="Path"></path>
                    <path d="M177.841983,127 C176.8052,126.99734 175.80668,126.607326 175.041647,125.906208 L46.2974184,7.18254829 C44.6487331,5.61820246 44.559592,3.01717828 46.0972951,1.34320292 C47.6349982,-0.330772431 50.2294212,-0.457049875 51.9218206,1.05970782 L180.66605,119.783368 C181.92191,120.946666 182.33758,122.762412 181.713254,124.357815 C181.088929,125.953217 179.552296,127.001985 177.841983,127 L177.841983,127 Z" id="Path"></path>
                </g>
                <g id="Group-3" transform="translate(142.000000, 0.000000)">
                    <circle id="Oval" fill="#F3AC4E" cx="23" cy="23" r="23"></circle>
                    <g id="!" transform="translate(20.000000, 7.000000)" fill="#FFFFFF" fill-rule="nonzero">
                        <path d="M6.125,21.1008403 L0.875,21.1008403 L0.875,0 L6.125,0 L6.125,21.1008403 Z M0,27.7002801 C0,26.774043 0.342708333,25.9780579 1.028125,25.3123249 C1.71354167,24.646592 2.5375,24.3137255 3.5,24.3137255 C4.43333333,24.3137255 5.25,24.6321195 5.95,25.2689076 C6.65,25.9056956 7,26.6872082 7,27.6134454 C7,28.5396825 6.65729167,29.3356676 5.971875,30.0014006 C5.28645833,30.6671335 4.4625,31 3.5,31 C3.03333333,31 2.58854167,30.9131653 2.165625,30.7394958 C1.74270833,30.5658263 1.37083333,30.334267 1.05,30.0448179 C0.729166667,29.7553688 0.473958333,29.4080299 0.284375,29.0028011 C0.0947916667,28.5975724 0,28.1633987 0,27.7002801 Z" id="Shape"></path>
                    </g>
                </g>
            </g>
        </g>
    </g>
</svg>