<?xml version="1.0" encoding="UTF-8"?>
<svg width="26px" height="26px" viewBox="0 0 26 26" version="1.1" xmlns="http://www.w3.org/2000/svg" xmlns:xlink="http://www.w3.org/1999/xlink">
    <title>Group 2</title>
    <g id="Revised-2" stroke="none" stroke-width="1" fill="none" fill-rule="evenodd">
        <g id="App_ToastAlert-Notice_3.0.2" transform="translate(-671.000000, -1151.000000)">
            <g id="Group-2" transform="translate(671.000000, 1151.000000)">
                <circle id="Oval-Copy" stroke="#2D3E4F" stroke-width="2.75" cx="13" cy="13" r="11.625"></circle>
                <g id="?" transform="translate(8.236842, 6.000000)" fill="#2D3E4F" fill-rule="nonzero">
                    <path d="M3.28378378,10 L3.28378378,8.93617021 C3.28378378,8.65248227 3.30067568,8.41070277 3.33445946,8.21083172 C3.36824324,8.01096067 3.42905405,7.83043198 3.51689189,7.66924565 C3.60472973,7.50805932 3.71959459,7.35332044 3.86148649,7.20502901 C4.00337838,7.05673759 4.17567568,6.87943262 4.37837838,6.67311412 L5.93918919,5.16441006 C6.27702703,4.8420374 6.44594595,4.42295293 6.44594595,3.90715667 C6.44594595,3.40425532 6.27364865,2.99484204 5.92905405,2.67891683 C5.58445946,2.36299162 5.14864865,2.20502901 4.62162162,2.20502901 C4.05405405,2.20502901 3.58783784,2.38878143 3.22297297,2.75628627 C2.85810811,3.1237911 2.64864865,3.5718891 2.59459459,4.10058027 L0,3.90715667 C0.0810810811,3.28820116 0.25,2.73694391 0.506756757,2.25338491 C0.763513514,1.76982592 1.09797297,1.36041264 1.51013514,1.02514507 C1.9222973,0.689877498 2.39864865,0.435203095 2.93918919,0.261121857 C3.47972973,0.087040619 4.07432432,0 4.72297297,0 C5.33108108,0 5.89527027,0.0838168923 6.41554054,0.251450677 C6.93581081,0.419084462 7.38851351,0.660863959 7.77364865,0.976789168 C8.15878378,1.29271438 8.45945946,1.68600903 8.67567568,2.15667311 C8.89189189,2.6273372 9,3.16569955 9,3.77176015 C9,4.19729207 8.93918919,4.57124436 8.81756757,4.89361702 C8.69594595,5.21598968 8.53378378,5.51257253 8.33108108,5.78336557 C8.12837838,6.05415861 7.89527027,6.31205674 7.63175676,6.55705996 C7.36824324,6.80206319 7.08783784,7.05996132 6.79054054,7.33075435 C6.60135135,7.49838814 6.43918919,7.64667956 6.30405405,7.77562863 C6.16891892,7.90457769 6.05743243,8.03675048 5.96959459,8.172147 C5.88175676,8.30754352 5.81756757,8.4622824 5.77702703,8.63636364 C5.73648649,8.81044487 5.71621622,9.01998711 5.71621622,9.26499033 L5.71621622,10 L3.28378378,10 Z M3,12.5194805 C3,12.1038961 3.146875,11.7467532 3.440625,11.4480519 C3.734375,11.1493506 4.0875,11 4.5,11 C4.9,11 5.25,11.1428571 5.55,11.4285714 C5.85,11.7142857 6,12.0649351 6,12.4805195 C6,12.8961039 5.853125,13.2532468 5.559375,13.5519481 C5.265625,13.8506494 4.9125,14 4.5,14 C4.3,14 4.109375,13.961039 3.928125,13.8831169 C3.746875,13.8051948 3.5875,13.7012987 3.45,13.5714286 C3.3125,13.4415584 3.203125,13.2857143 3.121875,13.1038961 C3.040625,12.9220779 3,12.7272727 3,12.5194805 Z" id="Shape"></path>
                </g>
            </g>
        </g>
    </g>
</svg>