<svg xmlns="http://www.w3.org/2000/svg" width="25" height="25" viewBox="0 0 25 25">
    <g fill="none" fill-rule="evenodd">
        <g>
            <g transform="translate(-329.000000, -24.000000) translate(329.000000, 24.000000)">
                <circle cx="12.5" cy="12.5" r="12.5" fill="#042363"/>
                <path fill="#FFF" fill-rule="nonzero" d="M13.74 15.615v-.73c0-.242.02-.45.058-.622.038-.173.099-.326.182-.46.083-.135.189-.266.316-.393.128-.128.282-.275.46-.441.282-.269.547-.525.796-.767.25-.243.47-.499.662-.767.191-.269.345-.563.46-.882.115-.32.172-.69.172-1.112 0-.601-.102-1.135-.306-1.601-.205-.467-.49-.857-.854-1.17-.364-.313-.792-.553-1.284-.719-.492-.166-1.026-.25-1.601-.25-.614 0-1.176.087-1.687.26-.512.172-.962.425-1.352.757-.39.332-.706.738-.95 1.217-.242.48-.402 1.026-.479 1.64l2.455.192c.05-.525.249-.969.594-1.333s.786-.546 1.323-.546c.498 0 .91.156 1.237.47.326.312.489.718.489 1.217 0 .511-.16.927-.48 1.246l-1.476 1.496c-.192.204-.355.38-.49.527-.133.147-.242.3-.325.46-.083.16-.14.339-.173.537-.032.198-.048.438-.048.719v1.055h2.301zm-1.15 4.122c.422 0 .783-.147 1.083-.441.3-.294.45-.646.45-1.055 0-.409-.153-.754-.46-1.035-.306-.281-.664-.422-1.073-.422-.422 0-.783.147-1.083.441-.3.294-.451.646-.451 1.055 0 .204.042.396.125.575.083.179.195.332.335.46s.304.23.49.307c.184.076.38.115.584.115z"/>
            </g>
        </g>
    </g>
</svg>
