<?xml version="1.0" encoding="utf-8"?>
<!-- Generator: Adobe Illustrator 25.4.6, SVG Export Plug-In . SVG Version: 6.00 Build 0)  -->
<svg version="1.1" id="Layer_1" xmlns="http://www.w3.org/2000/svg" xmlns:xlink="http://www.w3.org/1999/xlink" x="0px" y="0px"
	 viewBox="0 0 14 13" style="enable-background:new 0 0 14 13;" xml:space="preserve">
<style type="text/css">
	.st0{fill-rule:evenodd;clip-rule:evenodd;fill:#FFFFFF;}
</style>
<g id="Data-Sync-Revised-8.21.24">
	<g id="App_UI_DataSync_2.0-Copy-2" transform="translate(-287.000000, -267.000000)">
		<g id="Upload-Btn" transform="translate(223.000000, 260.000000)">
			<g id="Icon_Upload-Cloud" transform="translate(64.000000, 7.500000)">
				<g id="Group-3">
					<g id="Clip-2">
					</g>
					<path id="Fill-1" class="st0" d="M4.3,11c-0.5,0-1.1,0-1.6-0.1C1,10.3-0.2,8.5,0,6.6S1.6,3.3,3.3,3c0.1,0,0.1,0,0.1-0.1
						c0.4-1.4,1.2-2.3,2.5-2.7c2-0.7,4.1,0.6,4.7,2.7C10.6,3,10.7,3,10.8,3c1.7,0.3,3,1.7,3.2,3.5c0.3,2.2-1.3,4.2-3.3,4.4
						c-0.6,0.1-1.2,0-1.8,0c-0.3,0-0.4-0.2-0.4-0.5S8.7,9.9,9,9.9c0.5,0,0.9,0,1.4,0c1.3,0,2.4-0.9,2.7-2.3c0.3-1.7-1-3.6-2.7-3.6
						C10,4,9.8,3.8,9.8,3.5C9.5,2,8.4,1,7,1C5.7,1,4.5,2,4.3,3.4C4.2,3.9,4.1,4,3.6,4C2.3,4,1.1,5.2,0.9,6.7c-0.1,1.6,0.9,3,2.3,3.2
						C3.5,10,3.8,10,4.1,10s0.7,0,1,0s0.5,0.2,0.5,0.5S5.4,11,5.1,11C4.8,11,4.6,11,4.3,11"/>
				</g>
				<g id="Group-6" transform="translate(4.000000, 4.000000)">
					<g id="Clip-5">
					</g>
					<path id="Fill-4" class="st0" d="M3.5,1.6v0.2c0,1.9,0,3.8,0,5.6c0,0.1,0,0.2,0,0.2C3.4,7.9,3.2,8,2.9,8C2.7,8,2.5,7.8,2.5,7.6
						V7.5c0-1.9,0-3.7,0-5.6V1.6C2.4,1.7,2.4,1.7,2.4,1.7c-0.5,0.5-1,0.9-1.5,1.4C0.7,3.3,0.5,3.3,0.3,3.3C0.1,3.2,0,3.1,0,2.9
						c0-0.2,0-0.3,0.2-0.4C1,1.7,1.8,0.9,2.6,0.2C2.8,0,3.1,0,3.4,0.2c0.5,0.5,1,0.9,1.5,1.4c0.3,0.3,0.7,0.6,1,0.9C6,2.6,6,2.8,6,3
						C5.9,3.2,5.8,3.3,5.6,3.3c-0.2,0-0.3,0-0.5-0.2C4.6,2.6,4.1,2.2,3.5,1.6C3.6,1.7,3.6,1.7,3.5,1.6L3.5,1.6"/>
				</g>
			</g>
		</g>
	</g>
</g>
</svg>
