<?xml version="1.0" encoding="utf-8"?>
<!-- Generator: Adobe Illustrator 25.4.6, SVG Export Plug-In . SVG Version: 6.00 Build 0)  -->
<svg version="1.1" id="Layer_1" xmlns="http://www.w3.org/2000/svg" xmlns:xlink="http://www.w3.org/1999/xlink" x="0px" y="0px"
	 viewBox="0 0 10 14" style="enable-background:new 0 0 10 14;" xml:space="preserve">
<style type="text/css">
	.st0{fill-rule:evenodd;clip-rule:evenodd;fill:#FFFFFF;}
</style>
<g id="Data-Sync-Revised-8.21.24">
	<g id="App_UI_DataSync_2.0-Copy-2" transform="translate(-296.000000, -220.000000)">
		<g id="Download-Btn" transform="translate(223.000000, 214.000000)">
			<g id="Icon_Download-Mobile" transform="translate(73.500000, 6.000000)">
				<g id="Group-3" transform="translate(0.000000, 1.000000)">
					<g id="Clip-2">
					</g>
					<path id="Fill-1" class="st0" d="M7.3,12.2c-1.9,0-3.7,0-5.6,0c-0.6,0-0.9-0.3-0.9-0.9c0-0.4,0-0.8,0-1.2h7.4
						c0,0.4,0,0.8,0,1.2C8.2,11.9,7.8,12.2,7.3,12.2 M9,1.7C9,1,8.7,0.5,8.2,0.2C8,0.1,7.8,0.1,7.6,0H5.8v0.8c1,0,0.5,0,1.5,0
						c0.6,0,0.9,0.3,0.9,0.9c0,2.5,0,5,0,7.4H0.8c0-0.9,0-1.8,0-2.6c0-1.6,0-3.2,0-4.8c0-0.6,0.3-0.9,0.9-0.9c0.8,0,0.7,0,1.5,0V0
						H1.4l0,0C0.5,0.2,0,0.8,0,1.7c0,3.2,0,6.4,0,9.6c0,1,0.7,1.7,1.7,1.7c1.9,0,3.8,0,5.6,0c1,0,1.7-0.7,1.7-1.7c0-0.7,0-1.3,0-2
						C9,6.8,9,4.2,9,1.7"/>
				</g>
				<path id="Fill-4" class="st0" d="M1.9,5.4C1.8,5.6,1.9,5.7,2,5.8c0.3,0.3,0.6,0.6,0.9,0.8C3.3,7,3.8,7.4,4.2,7.8
					C4.4,8,4.6,8,4.8,7.9c0.7-0.7,1.4-1.3,2.2-2c0.1-0.1,0.2-0.2,0.1-0.4c0-0.2-0.1-0.3-0.3-0.3c-0.2-0.1-0.3,0-0.5,0.1
					C5.9,5.7,5.5,6.1,5.1,6.5L5,6.6V6.4c0-1.6,0-4.3,0-5.9V0.4C4.9,0.2,4.8,0,4.5,0C4.3,0,4.1,0.1,4.1,0.3c0,0.1,0,0.1,0,0.2
					c0,1.6,0,4.3,0,5.9v0.1l0,0c0,0,0-0.1-0.1-0.1C3.5,6.1,3.1,5.7,2.6,5.3C2.5,5.2,2.4,5.1,2.3,5.1C2.1,5.2,2,5.2,1.9,5.4z"/>
			</g>
		</g>
	</g>
</g>
</svg>
