<svg xmlns="http://www.w3.org/2000/svg" viewBox="0 0 33 33"><defs><style>.cls-1{fill:#2d3e4f;fill-rule:evenodd;}</style></defs><g id="Layer_2" data-name="Layer 2"><g id="Layer_2-2" data-name="Layer 2"><path class="cls-1" d="M16.5,0A16.5,16.5,0,1,0,33,16.5,16.5,16.5,0,0,0,16.5,0ZM14.62,6h3.76V20.29H14.62Zm3.65,20.32a2.63,2.63,0,0,1-2.72.5,2.45,2.45,0,0,1-.8-.47,2.22,2.22,0,0,1-.55-.7,2.07,2.07,0,0,1-.2-.89,2.11,2.11,0,0,1,.73-1.61,2.53,2.53,0,0,1,1.77-.68,2.6,2.6,0,0,1,1.75.65A2,2,0,0,1,19,24.71,2.11,2.11,0,0,1,18.27,26.32Z"/></g></g></svg>