<?xml version="1.0" encoding="UTF-8"?>
<svg width="31px" height="35px" viewBox="0 0 31 35" version="1.1" xmlns="http://www.w3.org/2000/svg" xmlns:xlink="http://www.w3.org/1999/xlink">
    <title>Combined Shape</title>
    <g id="Map-Listings-Overlay" stroke="none" stroke-width="1" fill="none" fill-rule="evenodd">
        <g id="KS-Stations-Map-View_PopOver_-1.1" transform="translate(-86.000000, -93.000000)" fill="#1B80C9">
            <g id="Group-27" transform="translate(7.000000, 66.000000)">
                <g id="Map-Title" transform="translate(79.000000, 24.000000)">
                    <path d="M30,3 C30.5522847,3 31,3.44771525 31,4 L31,37 C31,37.5522847 30.5522847,38 30,38 L1,38 C0.44771525,38 6.76353751e-17,37.5522847 0,37 L0,4 C-6.76353751e-17,3.44771525 0.44771525,3 1,3 L30,3 Z M6,12 L12.4125,24 L24,28 L18.0234375,17.6 L6,12 Z M15.61875,19.2 C16.5041315,19.2 17.221875,19.9163444 17.221875,20.8 C17.221875,21.6836556 16.5041315,22.4 15.61875,22.4 C14.7333685,22.4 14.015625,21.6836556 14.015625,20.8 C14.015625,19.9163444 14.7333685,19.2 15.61875,19.2 Z" id="Combined-Shape"></path>
                </g>
            </g>
        </g>
    </g>
</svg>